<?xml version="1.0" encoding="UTF-8" standalone="no"?>
<!-- Created with Inkscape (http://www.inkscape.org/) -->

<svg
   width="1080"
   height="1080"
   viewBox="0 0 1080 1080"
   version="1.1"
   id="svg5"
   xml:space="preserve"
   inkscape:version="1.2.2 (732a01da63, 2022-12-09, custom)"
   sodipodi:docname="logo.svg"
   inkscape:export-filename="../b896f173/logo.png"
   inkscape:export-xdpi="96"
   inkscape:export-ydpi="96"
   xmlns:inkscape="http://www.inkscape.org/namespaces/inkscape"
   xmlns:sodipodi="http://sodipodi.sourceforge.net/DTD/sodipodi-0.dtd"
   xmlns="http://www.w3.org/2000/svg"
   xmlns:svg="http://www.w3.org/2000/svg"><sodipodi:namedview
     id="namedview7"
     pagecolor="#ffffff"
     bordercolor="#000000"
     borderopacity="0.25"
     inkscape:showpageshadow="2"
     inkscape:pageopacity="0.0"
     inkscape:pagecheckerboard="0"
     inkscape:deskcolor="#d1d1d1"
     inkscape:document-units="px"
     showgrid="false"
     inkscape:zoom="0.30903185"
     inkscape:cx="506.42029"
     inkscape:cy="821.92175"
     inkscape:window-width="1440"
     inkscape:window-height="868"
     inkscape:window-x="0"
     inkscape:window-y="0"
     inkscape:window-maximized="1"
     inkscape:current-layer="layer1" /><defs
     id="defs2" /><g
     inkscape:groupmode="layer"
     id="layer2"
     inkscape:label="Camada 2"><path
       id="rect430-2"
       style="fill:#009c3b;fill-opacity:1"
       sodipodi:type="inkscape:offset"
       inkscape:radius="0"
       inkscape:original="M 299.83203 155.61133 C 275.01111 155.67133 250.18905 155.65629 225.37109 156.08984 C 219.26914 156.248 213.21165 156.31572 207.11523 156.88281 C 206.23646 156.97671 205.35514 157.07866 204.49609 157.29102 C 206.91396 188.38723 209.47915 219.47202 211.9707 250.5625 C 223.77679 396.43715 235.65571 542.30652 247.57617 688.17188 C 251.56681 736.96829 255.55493 785.76825 259.60547 834.55273 C 259.86957 837.38361 260.03687 840.23574 260.37109 843.05273 C 261.58233 844.22994 263.26533 844.75112 264.7793 845.43164 C 271.97648 848.21961 279.39945 850.36421 286.77344 852.625 C 310.26678 859.60703 333.87703 866.23448 357.44922 872.91211 C 411.78622 888.23763 466.1176 903.56589 520.54102 918.56055 C 527.77135 920.52111 534.91933 922.55414 542.17188 924.375 C 549.90944 922.45546 557.568 920.22886 565.25195 918.10742 C 608.1179 906.05631 650.89599 893.75406 693.67969 881.41406 C 729.07807 871.1825 764.46863 860.94908 799.79688 850.46484 C 805.26285 848.82363 810.74143 847.21758 816.16992 845.45508 C 817.14567 837.2104 817.8725 828.86236 818.67773 820.55859 C 823.02422 774.11369 827.09686 727.6071 831.20898 681.12695 C 840.60661 574.16664 849.83866 467.19236 858.92383 360.20508 C 863.42894 306.98326 867.93161 253.76428 872.23438 200.53125 C 873.22433 188.16486 874.22136 175.73499 875.10938 163.40039 C 875.24413 161.41127 875.38249 159.42223 875.49219 157.43164 C 861.33981 157.09579 847.18269 157.04434 833.02734 156.91016 C 775.72463 156.49557 718.42103 156.30075 661.11719 156.11914 C 575.7334 155.86954 490.34889 155.76616 404.96484 155.64844 C 369.92072 155.60784 334.87617 155.57633 299.83203 155.61133 z "
       d="m 299.83203,155.61133 c -24.82092,0.06 -49.64298,0.045 -74.46094,0.47851 -6.10195,0.15816 -12.15944,0.22588 -18.25586,0.79297 -0.87877,0.0939 -1.76009,0.19585 -2.61914,0.40821 2.41787,31.09621 4.98306,62.181 7.47461,93.27148 11.80609,145.87465 23.68501,291.74402 35.60547,437.60938 3.99064,48.79641 7.97876,97.59637 12.0293,146.38085 0.2641,2.83088 0.4314,5.68301 0.76562,8.5 1.21124,1.17721 2.89424,1.69839 4.40821,2.37891 7.19718,2.78797 14.62015,4.93257 21.99414,7.19336 23.49334,6.98203 47.10359,13.60948 70.67578,20.28711 54.337,15.32552 108.66838,30.65378 163.0918,45.64844 7.23033,1.96056 14.37831,3.99359 21.63086,5.81445 7.73756,-1.91954 15.39612,-4.14614 23.08007,-6.26758 42.86595,-12.05111 85.64404,-24.35336 128.42774,-36.69336 35.39838,-10.23156 70.78894,-20.46498 106.11719,-30.94922 5.46597,-1.64121 10.94455,-3.24726 16.37304,-5.00976 0.97575,-8.24468 1.70258,-16.59272 2.50781,-24.89649 4.34649,-46.4449 8.41913,-92.95149 12.53125,-139.43164 9.39763,-106.96031 18.62968,-213.93459 27.71485,-320.92187 4.50511,-53.22182 9.00778,-106.4408 13.31055,-159.67383 0.98995,-12.36639 1.98698,-24.79626 2.875,-37.13086 0.13475,-1.98912 0.27311,-3.97816 0.38281,-5.96875 -14.15238,-0.33585 -28.3095,-0.3873 -42.46485,-0.52148 -57.30271,-0.41459 -114.60631,-0.60941 -171.91015,-0.79102 -85.38379,-0.2496 -170.7683,-0.35298 -256.15235,-0.4707 -35.04412,-0.0406 -70.08867,-0.0721 -105.13281,-0.0371 z"
       class="UnoptimicedTransforms" /></g><g
     inkscape:label="Camada 1"
     inkscape:groupmode="layer"
     id="layer1"><g
       id="g2501"
       transform="translate(877.34171,74.429229)"
       class="UnoptimicedTransforms" /><text
       xml:space="preserve"
       style="font-style:normal;font-variant:normal;font-weight:900;font-stretch:normal;font-size:371.54px;font-family:'Source Code Pro';-inkscape-font-specification:'Source Code Pro, Heavy';font-variant-ligatures:normal;font-variant-caps:normal;font-variant-numeric:normal;font-variant-east-asian:normal;text-align:center;text-anchor:middle;display:inline;fill:#002776;fill-opacity:1;stroke-width:10.3916"
       x="403.23871"
       y="529.94635"
       id="text2557"><tspan
         sodipodi:role="line"
         x="0"
         y="0"
         id="tspan2559"
         style="font-style:normal;font-variant:normal;font-weight:900;font-stretch:normal;font-size:371.54px;font-family:'Source Code Pro';-inkscape-font-specification:'Source Code Pro, Heavy';font-variant-ligatures:normal;font-variant-caps:normal;font-variant-numeric:normal;font-variant-east-asian:normal;stroke-width:10.3916">B</tspan><tspan
         sodipodi:role="line"
         x="0"
         y="0"
         style="font-style:normal;font-variant:normal;font-weight:900;font-stretch:normal;font-size:371.54px;font-family:'Source Code Pro';-inkscape-font-specification:'Source Code Pro, Heavy';font-variant-ligatures:normal;font-variant-caps:normal;font-variant-numeric:normal;font-variant-east-asian:normal;stroke-width:10.3916"
         id="tspan2619" /></text><text
       xml:space="preserve"
       style="font-style:normal;font-variant:normal;font-weight:900;font-stretch:normal;font-size:371.54px;font-family:'Source Code Pro';-inkscape-font-specification:'Source Code Pro, Heavy';font-variant-ligatures:normal;font-variant-caps:normal;font-variant-numeric:normal;font-variant-east-asian:normal;text-align:center;text-anchor:middle;display:inline;fill:#002776;fill-opacity:1;stroke-width:1.13816"
       x="405.46793"
       y="821.60327"
       id="text2623"><tspan
         sodipodi:role="line"
         id="tspan2621"
         x="0"
         y="0"
         style="stroke-width:1.13816">R</tspan></text><path
       style="fill:#ffdf00;fill-opacity:1"
       d="m 542.93168,862.26961 0.0443,-645.5646 280.3362,2.37637 -50.13137,575.84073 z"
       id="path3629" /><path
       style="fill:#002776;fill-opacity:1"
       d="m 569.74577,824.87289 -3.43221,-90.38136 122.41526,-37.75424 2.28814,-107.54237 -124.7034,11.44068 1.14407,-312.33051 205.93221,2.28813 -9.15255,85.80509 -115.55084,2.28813 -1.14407,128.1356 113.26271,1.14407 -11.44068,274.57627 z"
       id="path3573" /></g></svg>
